<svg xmlns="http://www.w3.org/2000/svg" viewBox="0 0 64 64">
  <rect width="64" height="64" rx="14" fill="#0b111b"/>
  <path d="M31 54c-6.1 0-11-4.9-11-11V23c0-6.1 4.9-11 11-11s11 4.9 11 11v4.5c0 1.4 1.1 2.5 2.5 2.5s2.5-1.1 2.5-2.5V23c0-3.3 2.7-6 6-6s6 2.7 6 6v8c0 7.2-5.8 13-13 13h-4v10H31z" fill="#3bbf73"/>
  <path d="M20 38h-4c-6.1 0-11-4.9-11-11v-5c0-3.3 2.7-6 6-6s6 2.7 6 6v4c0 1.7 1.3 3 3 3h1v9z" fill="#2fa866"/>
  <path d="M31 12c-6.1 0-11 4.9-11 11v31h8V22c0-4.1 2.2-7.8 5.5-9.7A11 11 0 0 0 31 12z" fill="#58d88b" opacity=".62"/>
  <path d="M24 28l8 3M40 31l8-3" stroke="#082216" stroke-width="3.3" stroke-linecap="round"/>
  <circle cx="30" cy="35" r="2.4" fill="#071b12"/>
  <circle cx="43" cy="35" r="2.4" fill="#071b12"/>
  <path d="M30 44c3.8-3 8.2-3 12 0" fill="none" stroke="#071b12" stroke-width="3.2" stroke-linecap="round"/>
  <path d="M27 18v3M35 16v3M28 50v3M38 22v3M48 37v3M12 24v3M15 33v3" stroke="#d7f8df" stroke-width="2" stroke-linecap="round"/>
  <path d="M18 54h28" stroke="#d7b46a" stroke-width="5" stroke-linecap="round"/>
</svg>
